<svg xmlns="http://www.w3.org/2000/svg" viewBox="0 0 91.27 150.31"><defs><style>.cls-1{opacity:0.85;}</style></defs><g id="Capa_2" data-name="Capa 2"><g id="Capa_1-2" data-name="Capa 1"><path class="cls-1" d="M26.78,146.3s32.88,12.54,47-6.72S92.08,63,91.14,58.77,92.08-1.83,47.92.05-4.73,72.4,2.1,87.9,3.29,129.11,15,137.7s49.8,5.17,49.8-7.52S85,76.63,72.35,57.36,54.5,1.93,39.93,18.84,12.21,72.4,20.2,90.25s6.11,48.86,15,39.93S55.43,87.67,49.8,76.51s-9.4,8.57-9.4,8.57S35.23,97.35,26.78,83.2,45.7,42.33,45.63,45.15,66.24,63,62.48,92.6s-7,27.25-11.27,32.42-13.63,12.68-17.86,10.8-12.21-2.35-16.44-31-2.35-67.65,8-80.33S50.27,2.86,62.48,11.32,77.05,54.07,77.05,57.83s7,29.6-3.76,58.26-11.17,23.71-16,26.78C52,146.3,26.78,146.3,26.78,146.3Z"/></g></g></svg>